<svg width="80" height="80" viewBox="0 0 80 80" fill="none" xmlns="http://www.w3.org/2000/svg">
<circle cx="40" cy="40" r="40" fill="#424242" fill-opacity="0.59"/>
<path d="M40 31.058L26 26.18V46.924L40 53.426V31.058ZM27.264 22.216L40 26.652L52.736 22.216C54.83 21.486 57.096 22.67 57.796 24.86C57.93 25.286 58 25.732 58 26.18V46.924C58 48.576 57.07 50.072 55.624 50.744L40 58L24.376 50.744C22.93 50.072 22 48.576 22 46.924V26.18C22 23.872 23.79 22 26 22C26.43 22 26.858 22.074 27.264 22.216Z" fill="white"/>
</svg>
