<svg width="47" height="43" viewBox="0 0 47 43" fill="none" xmlns="http://www.w3.org/2000/svg">
<path d="M6.25 30.1004V12.9004C6.25 12.0076 6.25 11.3133 6.28678 10.75C6.33268 10.0471 6.43586 9.54835 6.66781 9.12282C7.03532 8.44858 7.62132 7.90079 8.34261 7.55725C9.16261 7.16669 10.2368 7.16669 12.3837 7.16669H34.617C36.7639 7.16669 37.8358 7.16669 38.6558 7.55725C39.3771 7.90079 39.9651 8.44858 40.3326 9.12282C40.5645 9.54835 40.6676 10.0471 40.7134 10.75C40.75 11.312 40.75 12.0046 40.75 12.8945L40.75 30.1055C40.75 32.1085 40.75 33.11 40.3326 33.8758C39.9651 34.55 39.3771 35.0996 38.6558 35.4432C37.8367 35.8334 36.7653 35.8334 34.6226 35.8334L12.3775 35.8334C10.2348 35.8334 9.16181 35.8334 8.34261 35.4432C7.62132 35.0996 7.03532 34.55 6.66781 33.8758C6.25 33.1092 6.25 32.1072 6.25 30.1004Z" fill="url(#paint0_linear_57_1443)"/>
<path d="M6.25 10.75H6.28678M6.28678 10.75H40.7134M6.28678 10.75C6.25 11.3133 6.25 12.0076 6.25 12.9004V30.1004C6.25 32.1072 6.25 33.1092 6.66781 33.8758C7.03532 34.55 7.62132 35.0996 8.34261 35.4432C9.16181 35.8334 10.2348 35.8334 12.3775 35.8334L34.6226 35.8334C36.7653 35.8334 37.8367 35.8334 38.6558 35.4432C39.3771 35.0996 39.9651 34.55 40.3326 33.8758C40.75 33.11 40.75 32.1085 40.75 30.1055L40.75 12.8945C40.75 12.0046 40.75 11.312 40.7134 10.75M6.28678 10.75C6.33268 10.0471 6.43586 9.54835 6.66781 9.12282C7.03532 8.44858 7.62132 7.90079 8.34261 7.55725C9.16261 7.16669 10.2368 7.16669 12.3837 7.16669H34.617C36.7639 7.16669 37.8358 7.16669 38.6558 7.55725C39.3771 7.90079 39.9651 8.44858 40.3326 9.12282C40.5645 9.54835 40.6676 10.0471 40.7134 10.75M40.7134 10.75H40.75M27.3333 19.7084L31.1667 23.2917L27.3333 26.875M19.6667 26.875L15.8333 23.2917L19.6667 19.7084" stroke="white" stroke-width="2" stroke-linecap="round" stroke-linejoin="round"/>
<defs>
<linearGradient id="paint0_linear_57_1443" x1="23.5" y1="7.16669" x2="23.5" y2="35.8334" gradientUnits="userSpaceOnUse">
<stop stop-color="#6100FF" stop-opacity="0"/>
<stop offset="1" stop-color="#00FFD1"/>
</linearGradient>
</defs>
</svg>
