<svg width="52" height="53" viewBox="0 0 52 53" fill="none" xmlns="http://www.w3.org/2000/svg">
<rect opacity="0.1" y="0.134766" width="52" height="52" rx="10" fill="black"/>
<path fill-rule="evenodd" clip-rule="evenodd" d="M26.0031 15.2412C19.9897 15.2412 15.1094 20.1215 15.1094 26.135C15.1094 32.1484 19.9897 37.0287 26.0031 37.0287H30.2031C31.0005 37.0287 31.6469 36.3824 31.6469 35.585C31.6469 34.7876 31.0005 34.1412 30.2031 34.1412H26.0031C21.6636 34.1412 17.9969 30.4745 17.9969 26.135C17.9969 21.7954 21.6636 18.1287 26.0031 18.1287C30.3427 18.1287 34.0094 21.7954 34.0094 26.135V27.6365C34.0094 27.9361 33.8722 28.255 33.6399 28.502C33.4077 28.749 33.1123 28.8912 32.8282 28.8912C32.544 28.8912 32.2486 28.749 32.0164 28.502C31.7841 28.255 31.6469 27.9361 31.6469 27.6365V26.135C31.6469 23.0195 29.1186 20.4912 26.0031 20.4912C22.8877 20.4912 20.3594 23.0195 20.3594 26.135C20.3594 29.2504 22.8877 31.7787 26.0031 31.7787C27.4041 31.7787 28.6968 31.2669 29.6828 30.415C30.4577 31.2557 31.6126 31.7787 32.8282 31.7787C35.1242 31.7787 36.8969 29.9122 36.8969 27.6365V26.135C36.8969 20.1215 32.0166 15.2412 26.0031 15.2412ZM23.2469 26.135C23.2469 24.6094 24.4776 23.3787 26.0031 23.3787C27.5287 23.3787 28.7594 24.6094 28.7594 26.135C28.7594 27.6605 27.5287 28.8912 26.0031 28.8912C24.4776 28.8912 23.2469 27.6605 23.2469 26.135Z" fill="#40354B"/>
</svg>
