<svg width="81" height="80" viewBox="0 0 81 80" fill="none" xmlns="http://www.w3.org/2000/svg">
<circle cx="40.3334" cy="40" r="40" fill="#424242" fill-opacity="0.59"/>
<g clip-path="url(#clip0_20_803)">
<path d="M33.6667 38.3334C35.8768 38.3334 37.9965 37.4554 39.5593 35.8926C41.1221 34.3298 42 32.2102 42 30C42 27.7899 41.1221 25.6703 39.5593 24.1075C37.9965 22.5447 35.8768 21.6667 33.6667 21.6667C31.4566 21.6667 29.3369 22.5447 27.7741 24.1075C26.2113 25.6703 25.3334 27.7899 25.3334 30C25.3334 32.2102 26.2113 34.3298 27.7741 35.8926C29.3369 37.4554 31.4566 38.3334 33.6667 38.3334ZM33.6667 38.3334C37.0217 38.3334 39.9534 39.6 42.0384 41.705C43.2748 42.9581 44.1996 44.4841 44.7384 46.16M33.6667 38.3334C27 38.3334 22 43.3334 22 50V58.3334H38.6667M40.3334 51.3734L47.3167 56.6667L58.6667 41.6667" stroke="white" stroke-width="4"/>
</g>
<defs>
<clipPath id="clip0_20_803">
<rect width="40" height="40" fill="white" transform="translate(20.3334 20)"/>
</clipPath>
</defs>
</svg>
