<svg width="49" height="48" viewBox="0 0 49 48" fill="none" xmlns="http://www.w3.org/2000/svg">
<path d="M24.5 42C14.3518 42 6.125 33.9411 6.125 24C6.125 14.0589 14.3518 6 24.5 6C34.6482 6 42.875 14.0589 42.875 24C42.875 33.9411 34.6482 42 24.5 42Z" fill="url(#paint0_linear_57_1419)"/>
<path d="M6.125 24H16.3333M6.125 24C6.125 33.9411 14.3518 42 24.5 42M6.125 24C6.125 14.0589 14.3518 6 24.5 6M16.3333 24H32.6667M16.3333 24C16.3333 33.9411 19.9897 42 24.5 42M16.3333 24C16.3333 14.0589 19.9897 6 24.5 6M32.6667 24H42.875M32.6667 24C32.6667 14.0589 29.0103 6 24.5 6M32.6667 24C32.6667 33.9411 29.0103 42 24.5 42M42.875 24C42.875 14.0589 34.6482 6 24.5 6M42.875 24C42.875 33.9411 34.6482 42 24.5 42" stroke="white" stroke-width="2" stroke-linecap="round" stroke-linejoin="round"/>
<defs>
<linearGradient id="paint0_linear_57_1419" x1="24.5" y1="6" x2="24.5" y2="42" gradientUnits="userSpaceOnUse">
<stop stop-color="#6100FF" stop-opacity="0"/>
<stop offset="1" stop-color="#00FFD1"/>
</linearGradient>
</defs>
</svg>
