<svg width="205" height="36" viewBox="0 0 205 36" fill="none" xmlns="http://www.w3.org/2000/svg">
<path d="M12.8066 24.3879V27.5H2.23082V8.30394H12.2557V11.3059H5.67344V15.7951H10.9062V18.7144H5.67344V24.3879H12.8066ZM21.1201 27.8856C20.0184 27.8856 19.0545 27.5872 18.2283 26.9905C17.4112 26.3938 16.7778 25.5538 16.3279 24.4705C15.8873 23.378 15.6669 22.1111 15.6669 20.6698C15.6669 18.3748 16.1306 16.5984 17.0578 15.3407C17.9942 14.083 19.3666 13.4541 21.1751 13.4541C22.1207 13.4541 22.9148 13.6882 23.5574 14.1564C24.2001 14.6246 24.6178 15.2902 24.8106 16.1531L24.5627 14.1426V6.56885H27.8125V27.5H24.8106V24.6908C24.5535 25.6731 24.1083 26.4534 23.4748 27.0318C22.8414 27.601 22.0565 27.8856 21.1201 27.8856ZM21.9187 25.159C22.3778 25.159 22.8001 25.003 23.1856 24.6908C23.5804 24.3787 23.8925 23.8921 24.122 23.2311C24.3607 22.561 24.4801 21.7256 24.4801 20.7249C24.4801 19.2744 24.2735 18.1636 23.8604 17.3925C23.4473 16.6213 22.8276 16.2357 22.0014 16.2357C21.524 16.2357 21.0742 16.378 20.6519 16.6626C20.2387 16.9472 19.8945 17.42 19.6191 18.081C19.3528 18.742 19.2197 19.6049 19.2197 20.6698C19.2197 21.6521 19.3345 22.4784 19.564 23.1485C19.8027 23.8187 20.124 24.3236 20.5279 24.6633C20.941 24.9938 21.4047 25.159 21.9187 25.159ZM43.4151 13.7846V27.5H40.303L40.2341 25.7236C39.8302 26.357 39.3299 26.8666 38.7332 27.2521C38.1456 27.6377 37.3928 27.8305 36.4748 27.8305C35.1161 27.8305 34.1017 27.399 33.4315 26.5361C32.7614 25.6731 32.4263 24.443 32.4263 22.8456V13.7846H35.8689V22.5426C35.8689 23.3413 36.0112 23.9702 36.2958 24.4292C36.5896 24.879 37.0532 25.1039 37.6866 25.1039C38.1181 25.1039 38.5037 24.9984 38.8433 24.7872C39.1922 24.5669 39.4676 24.2639 39.6696 23.8784C39.8715 23.4836 39.9725 23.0384 39.9725 22.5426V13.7846H43.4151ZM53.4392 27.8305C52.0346 27.8305 50.8641 27.5138 49.9277 26.8803C48.9913 26.2377 48.2982 25.3793 47.8484 24.3052C47.4077 23.2311 47.1874 22.0285 47.1874 20.6974C47.1874 19.3938 47.4353 18.1911 47.931 17.0895C48.4267 15.9879 49.1612 15.1066 50.1343 14.4456C51.1074 13.7846 52.2733 13.4541 53.632 13.4541C54.4766 13.4541 55.211 13.5459 55.8353 13.7295C56.4687 13.9039 57.0746 14.2252 57.653 14.6934L56.5238 17.6128C56.2575 17.218 55.8628 16.9059 55.3395 16.6764C54.8254 16.4377 54.3205 16.3184 53.8248 16.3184C51.8234 16.3184 50.8228 17.7689 50.8228 20.6698C50.8228 22.1846 51.0661 23.2908 51.5526 23.9885C52.0484 24.677 52.8057 25.0213 53.8248 25.0213C54.4398 25.0213 54.9998 24.9066 55.5048 24.677C56.0189 24.4475 56.4228 24.1675 56.7166 23.837L57.7631 26.2882C57.5612 26.5085 57.2536 26.738 56.8405 26.9767C56.4366 27.2062 55.9408 27.4036 55.3533 27.5689C54.7657 27.7433 54.1277 27.8305 53.4392 27.8305Z" fill="white"/>
<path d="M75.5797 8.30394V27.8856H75.3043L66.1056 17.3925L65.2518 16.2908L65.3895 18.9623V27.5H62.002V7.97344H62.3049L71.3659 18.5492L72.3298 19.8023L72.1921 17.1721V8.30394H75.5797ZM86.0489 27.858C84.5709 27.858 83.3499 27.5459 82.386 26.9216C81.422 26.2882 80.7151 25.4436 80.2653 24.3879C79.8247 23.3321 79.6043 22.1387 79.6043 20.8075C79.6043 19.4489 79.8522 18.2141 80.3479 17.1033C80.8528 15.9833 81.5873 15.0974 82.5512 14.4456C83.5151 13.7846 84.6627 13.4541 85.9938 13.4541C87.9768 13.4541 89.3951 14.0279 90.2489 15.1754C91.1027 16.3138 91.5296 18.0167 91.5296 20.2843C91.5296 20.7249 91.5112 21.2207 91.4745 21.7715H83.2122C83.2673 22.8823 83.5748 23.7407 84.1348 24.3466C84.704 24.9433 85.5348 25.2416 86.6273 25.2416C87.1965 25.2416 87.8069 25.1177 88.4588 24.8698C89.1106 24.6128 89.5925 24.3052 89.9047 23.9472L91.0063 26.5636C89.7119 27.4266 88.0594 27.858 86.0489 27.858ZM88.0319 19.6233C88.0319 18.2738 87.862 17.3466 87.5224 16.8416C87.1919 16.3275 86.7099 16.0705 86.0765 16.0705C85.186 16.0705 84.4928 16.401 83.9971 17.062C83.5106 17.723 83.2397 18.5767 83.1847 19.6233H88.0319ZM98.0721 27.8856C97.255 27.8856 96.5665 27.702 96.0065 27.3348C95.4465 26.9675 95.0242 26.4718 94.7396 25.8475C94.4642 25.2233 94.3265 24.5256 94.3265 23.7544C94.3265 23.0843 94.5468 22.4187 94.9875 21.7577C95.4373 21.0875 96.2314 20.5184 97.3698 20.0502C98.5081 19.582 100.046 19.3479 101.983 19.3479V18.7144C101.983 17.9616 101.799 17.3787 101.432 16.9656C101.074 16.5525 100.441 16.3459 99.5317 16.3459C98.8157 16.3459 98.1134 16.4698 97.4248 16.7177C96.7455 16.9564 96.2452 17.2548 95.9239 17.6128L94.8222 14.9689C95.4465 14.5466 96.2222 14.1885 97.1494 13.8948C98.0766 13.601 99.0635 13.4541 100.11 13.4541C101.423 13.4541 102.46 13.6561 103.222 14.06C103.993 14.4639 104.535 15.0331 104.847 15.7675C105.159 16.502 105.315 17.4108 105.315 18.4941V27.5H102.368L102.121 25.5446C101.634 26.3341 101.056 26.9216 100.385 27.3072C99.7245 27.6928 98.9534 27.8856 98.0721 27.8856ZM99.5317 25.2416C99.954 25.2416 100.399 25.0718 100.867 24.7321C101.336 24.3925 101.707 23.9656 101.983 23.4515V21.4961C101.854 21.4777 101.634 21.4685 101.322 21.4685C100.395 21.4685 99.5639 21.6246 98.8294 21.9367C98.1042 22.2397 97.7416 22.7354 97.7416 23.4239C97.7416 24.0757 97.8839 24.5439 98.1685 24.8285C98.4622 25.1039 98.9166 25.2416 99.5317 25.2416ZM109.421 13.7846H112.533L112.698 16.2082C112.992 15.5013 113.456 14.8954 114.089 14.3905C114.723 13.8764 115.618 13.6193 116.774 13.6193C117.233 13.6193 117.656 13.6928 118.041 13.8397L117.27 17.4475C117.114 17.2915 116.926 17.1813 116.705 17.117C116.494 17.0436 116.233 17.0069 115.921 17.0069C115.278 17.0069 114.723 17.1446 114.254 17.42C113.795 17.6862 113.446 17.9984 113.208 18.3564C112.978 18.7144 112.864 19.0082 112.864 19.2377V27.5H109.421V13.7846Z" fill="url(#paint0_linear_5_3320)"/>
<defs>
<linearGradient id="paint0_linear_5_3320" x1="60.8791" y1="5.85715" x2="119.558" y2="7.69187" gradientUnits="userSpaceOnUse">
<stop stop-color="#201CFF"/>
<stop offset="1" stop-color="#00F0FF"/>
</linearGradient>
</defs>
</svg>
