<svg width="62" height="62" viewBox="0 0 62 62" fill="none" xmlns="http://www.w3.org/2000/svg">
<path d="M7.75 38.2338V23.7672C7.75 20.8736 7.75 19.4257 8.31313 18.3205C8.80848 17.3483 9.5983 16.5585 10.5705 16.0631C11.6757 15.5 13.1236 15.5 16.0172 15.5H45.9838C48.8774 15.5 50.3222 15.5 51.4274 16.0631C52.3996 16.5585 53.1921 17.3483 53.6874 18.3205C54.25 19.4246 54.25 20.8707 54.25 23.7587V38.2413C54.25 41.1293 54.25 42.5733 53.6874 43.6774C53.1921 44.6496 52.3996 45.4421 51.4274 45.9374C50.3233 46.5 48.8793 46.5 45.9913 46.5H31H16.0087C15.8339 46.5 15.6644 46.5 15.5 46.4999C12.947 46.4979 11.6078 46.466 10.5705 45.9374C9.5983 45.4421 8.80848 44.6496 8.31313 43.6774C7.75 42.5722 7.75 41.1274 7.75 38.2338Z" fill="url(#paint0_linear_57_1427)"/>
<path d="M15.5 46.4999C15.6644 46.5 15.8339 46.5 16.0087 46.5H31M15.5 46.4999C12.947 46.4979 11.6078 46.466 10.5705 45.9374C9.5983 45.4421 8.80848 44.6496 8.31313 43.6774C7.75 42.5722 7.75 41.1274 7.75 38.2338V23.7672C7.75 20.8736 7.75 19.4257 8.31313 18.3205C8.80848 17.3483 9.5983 16.5585 10.5705 16.0631C11.6757 15.5 13.1236 15.5 16.0172 15.5H45.9838C48.8774 15.5 50.3222 15.5 51.4274 16.0631C52.3996 16.5585 53.1921 17.3483 53.6874 18.3205C54.25 19.4246 54.25 20.8707 54.25 23.7587V38.2413C54.25 41.1293 54.25 42.5733 53.6874 43.6774C53.1921 44.6496 52.3996 45.4421 51.4274 45.9374C50.3233 46.5 48.8793 46.5 45.9913 46.5H31M15.5 46.4999C15.5001 43.6465 18.9699 41.3333 23.25 41.3333C27.5302 41.3333 31 43.6465 31 46.5M15.5 46.4999C15.5 46.4999 15.5 46.4998 15.5 46.4999ZM46.5 36.1667H36.1667M46.5 28.4167H38.75M23.25 33.5833C20.3965 33.5833 18.0833 31.2701 18.0833 28.4167C18.0833 25.5632 20.3965 23.25 23.25 23.25C26.1035 23.25 28.4167 25.5632 28.4167 28.4167C28.4167 31.2701 26.1035 33.5833 23.25 33.5833Z" stroke="white" stroke-width="2" stroke-linecap="round" stroke-linejoin="round"/>
<defs>
<linearGradient id="paint0_linear_57_1427" x1="31" y1="15.5" x2="31" y2="46.5" gradientUnits="userSpaceOnUse">
<stop stop-color="#6100FF" stop-opacity="0"/>
<stop offset="1" stop-color="#00FFD1"/>
</linearGradient>
</defs>
</svg>
