<svg width="49" height="48" viewBox="0 0 49 48" fill="none" xmlns="http://www.w3.org/2000/svg">
<path d="M29.434 8.99858L26.9921 6.91759C25.5564 5.69414 23.4436 5.69414 22.0079 6.91759L19.5657 8.99864C18.9505 9.52292 18.1855 9.83962 17.3798 9.90391L14.1841 10.1588C12.3038 10.3088 10.8083 11.802 10.6583 13.6822L10.4024 16.8805C10.3382 17.6862 10.0235 18.4508 9.49925 19.066L7.4173 21.5084C6.19385 22.9441 6.19442 25.0552 7.41787 26.4908L9.49795 28.9332C10.0222 29.5484 10.3399 30.313 10.4042 31.1188L10.6601 34.317C10.8101 36.1973 12.3013 37.6904 14.1815 37.8404L17.3808 38.0953C18.1865 38.1596 18.9511 38.4763 19.5663 39.0006L22.0077 41.0817C23.4434 42.3052 25.5564 42.3049 26.9921 41.0815L29.4335 39.0004C30.0487 38.4761 30.8133 38.16 31.619 38.0957L34.8183 37.8404C36.6985 37.6904 38.1897 36.1969 38.3397 34.3166L38.5956 31.1186C38.6599 30.3128 38.9776 29.5476 39.5019 28.9323L41.5819 26.4907C42.8054 25.0551 42.8052 22.9433 41.5817 21.5076L39.5017 19.0664C38.9774 18.4512 38.6593 17.6862 38.595 16.8805L38.3407 13.6819C38.1907 11.8016 36.6972 10.309 34.8169 10.159L31.6188 9.90411C30.8131 9.83982 30.0492 9.52286 29.434 8.99858Z" fill="url(#paint0_linear_57_1435)"/>
<path d="M30.4999 19.9996L22.4999 27.9996L18.4999 23.9996M26.9921 6.91759L29.434 8.99858C30.0492 9.52286 30.8131 9.83982 31.6188 9.90411L34.8169 10.159C36.6972 10.309 38.1907 11.8016 38.3407 13.6819L38.595 16.8805C38.6593 17.6862 38.9774 18.4512 39.5017 19.0664L41.5817 21.5076C42.8052 22.9433 42.8054 25.0551 41.5819 26.4907L39.5019 28.9323C38.9776 29.5476 38.6599 30.3128 38.5956 31.1186L38.3397 34.3166C38.1897 36.1969 36.6985 37.6904 34.8183 37.8404L31.619 38.0957C30.8133 38.16 30.0487 38.4761 29.4335 39.0004L26.9921 41.0815C25.5564 42.3049 23.4434 42.3052 22.0077 41.0817L19.5663 39.0006C18.9511 38.4763 18.1865 38.1596 17.3808 38.0953L14.1815 37.8404C12.3013 37.6904 10.8101 36.1973 10.6601 34.317L10.4042 31.1188C10.3399 30.313 10.0222 29.5484 9.49795 28.9332L7.41787 26.4908C6.19442 25.0552 6.19385 22.9441 7.4173 21.5084L9.49925 19.066C10.0235 18.4508 10.3382 17.6862 10.4024 16.8805L10.6583 13.6822C10.8083 11.802 12.3038 10.3088 14.1841 10.1588L17.3798 9.90391C18.1855 9.83962 18.9505 9.52292 19.5657 8.99864L22.0079 6.91759C23.4436 5.69414 25.5564 5.69414 26.9921 6.91759Z" stroke="white" stroke-width="2" stroke-linecap="round" stroke-linejoin="round"/>
<defs>
<linearGradient id="paint0_linear_57_1435" x1="24.4997" y1="6" x2="24.4997" y2="41.9992" gradientUnits="userSpaceOnUse">
<stop stop-color="#6100FF" stop-opacity="0"/>
<stop offset="1" stop-color="#00FFD1"/>
</linearGradient>
</defs>
</svg>
